<svg width="13" height="13" viewBox="0 0 13 13" fill="none" xmlns="http://www.w3.org/2000/svg">
<path d="M11.3859 11.9258C11.6302 11.8243 11.8244 11.6301 11.9259 11.3858C11.9771 11.2656 12.0043 11.1365 12.0059 11.0058V5.0058C12.0059 4.74058 11.9005 4.48623 11.713 4.29869C11.5254 4.11116 11.2711 4.0058 11.0059 4.0058C10.7406 4.0058 10.4863 4.11116 10.2988 4.29869C10.1112 4.48623 10.0059 4.74058 10.0059 5.0058V8.5958L1.71586 0.295798C1.6229 0.20207 1.5123 0.127676 1.39044 0.0769072C1.26858 0.0261385 1.13787 0 1.00586 0C0.873848 0 0.743142 0.0261385 0.621283 0.0769072C0.499423 0.127676 0.388824 0.20207 0.29586 0.295798C0.202132 0.388761 0.127736 0.499362 0.0769672 0.621222C0.0261984 0.743081 6.10352e-05 0.873786 6.10352e-05 1.0058C6.10352e-05 1.13781 0.0261984 1.26852 0.0769672 1.39038C0.127736 1.51223 0.202132 1.62284 0.29586 1.7158L8.59586 10.0058H5.00586C4.74064 10.0058 4.48629 10.1112 4.29875 10.2987C4.11122 10.4862 4.00586 10.7406 4.00586 11.0058C4.00586 11.271 4.11122 11.5254 4.29875 11.7129C4.48629 11.9004 4.74064 12.0058 5.00586 12.0058H11.0059C11.1365 12.0042 11.2656 11.977 11.3859 11.9258Z" fill="#970C0C"/>
</svg>
