<svg width="49" height="54" viewBox="0 0 49 54" fill="none" xmlns="http://www.w3.org/2000/svg">
<path d="M7.55859 46.4648V47.0039C7.55859 47.6445 7.47852 48.2188 7.31836 48.7266C7.1582 49.2344 6.92773 49.666 6.62695 50.0215C6.32617 50.377 5.96484 50.6484 5.54297 50.8359C5.125 51.0234 4.65625 51.1172 4.13672 51.1172C3.63281 51.1172 3.16992 51.0234 2.74805 50.8359C2.33008 50.6484 1.9668 50.377 1.6582 50.0215C1.35352 49.666 1.11719 49.2344 0.949219 48.7266C0.78125 48.2188 0.697266 47.6445 0.697266 47.0039V46.4648C0.697266 45.8242 0.779297 45.252 0.943359 44.748C1.11133 44.2402 1.34766 43.8086 1.65234 43.4531C1.95703 43.0938 2.31836 42.8203 2.73633 42.6328C3.1582 42.4453 3.62109 42.3516 4.125 42.3516C4.64453 42.3516 5.11328 42.4453 5.53125 42.6328C5.95312 42.8203 6.31445 43.0938 6.61523 43.4531C6.91992 43.8086 7.15234 44.2402 7.3125 44.748C7.47656 45.252 7.55859 45.8242 7.55859 46.4648ZM6.43945 47.0039V46.4531C6.43945 45.9453 6.38672 45.4961 6.28125 45.1055C6.17969 44.7148 6.0293 44.3867 5.83008 44.1211C5.63086 43.8555 5.38672 43.6543 5.09766 43.5176C4.8125 43.3809 4.48828 43.3125 4.125 43.3125C3.77344 43.3125 3.45508 43.3809 3.16992 43.5176C2.88867 43.6543 2.64648 43.8555 2.44336 44.1211C2.24414 44.3867 2.08984 44.7148 1.98047 45.1055C1.87109 45.4961 1.81641 45.9453 1.81641 46.4531V47.0039C1.81641 47.5156 1.87109 47.9688 1.98047 48.3633C2.08984 48.7539 2.24609 49.084 2.44922 49.3535C2.65625 49.6191 2.90039 49.8203 3.18164 49.957C3.4668 50.0938 3.78516 50.1621 4.13672 50.1621C4.50391 50.1621 4.83008 50.0938 5.11523 49.957C5.40039 49.8203 5.64062 49.6191 5.83594 49.3535C6.03516 49.084 6.18555 48.7539 6.28711 48.3633C6.38867 47.9688 6.43945 47.5156 6.43945 47.0039ZM11.0156 50.0215L12.75 44.6602H13.8574L11.5781 51H10.8516L11.0156 50.0215ZM9.56836 44.6602L11.3555 50.0508L11.4785 51H10.752L8.45508 44.6602H9.56836ZM17.4492 51.1172C17.0078 51.1172 16.6074 51.043 16.248 50.8945C15.8926 50.7422 15.5859 50.5293 15.3281 50.2559C15.0742 49.9824 14.8789 49.6582 14.7422 49.2832C14.6055 48.9082 14.5371 48.498 14.5371 48.0527V47.8066C14.5371 47.291 14.6133 46.832 14.7656 46.4297C14.918 46.0234 15.125 45.6797 15.3867 45.3984C15.6484 45.1172 15.9453 44.9043 16.2773 44.7598C16.6094 44.6152 16.9531 44.543 17.3086 44.543C17.7617 44.543 18.1523 44.6211 18.4805 44.7773C18.8125 44.9336 19.084 45.1523 19.2949 45.4336C19.5059 45.7109 19.6621 46.0391 19.7637 46.418C19.8652 46.793 19.916 47.2031 19.916 47.6484V48.1348H15.1816V47.25H18.832V47.168C18.8164 46.8867 18.7578 46.6133 18.6562 46.3477C18.5586 46.082 18.4023 45.8633 18.1875 45.6914C17.9727 45.5195 17.6797 45.4336 17.3086 45.4336C17.0625 45.4336 16.8359 45.4863 16.6289 45.5918C16.4219 45.6934 16.2441 45.8457 16.0957 46.0488C15.9473 46.252 15.832 46.5 15.75 46.793C15.668 47.0859 15.627 47.4238 15.627 47.8066V48.0527C15.627 48.3535 15.668 48.6367 15.75 48.9023C15.8359 49.1641 15.959 49.3945 16.1191 49.5938C16.2832 49.793 16.4805 49.9492 16.7109 50.0625C16.9453 50.1758 17.2109 50.2324 17.5078 50.2324C17.8906 50.2324 18.2148 50.1543 18.4805 49.998C18.7461 49.8418 18.9785 49.6328 19.1777 49.3711L19.834 49.8926C19.6973 50.0996 19.5234 50.2969 19.3125 50.4844C19.1016 50.6719 18.8418 50.8242 18.5332 50.9414C18.2285 51.0586 17.8672 51.1172 17.4492 51.1172ZM22.2656 45.6562V51H21.1816V44.6602H22.2363L22.2656 45.6562ZM24.2461 44.625L24.2402 45.6328C24.1504 45.6133 24.0645 45.6016 23.9824 45.5977C23.9043 45.5898 23.8145 45.5859 23.7129 45.5859C23.4629 45.5859 23.2422 45.625 23.0508 45.7031C22.8594 45.7812 22.6973 45.8906 22.5645 46.0312C22.4316 46.1719 22.3262 46.3398 22.248 46.5352C22.1738 46.7266 22.125 46.9375 22.1016 47.168L21.7969 47.3438C21.7969 46.9609 21.834 46.6016 21.9082 46.2656C21.9863 45.9297 22.1055 45.6328 22.2656 45.375C22.4258 45.1133 22.6289 44.9102 22.875 44.7656C23.125 44.6172 23.4219 44.543 23.7656 44.543C23.8438 44.543 23.9336 44.5527 24.0352 44.5723C24.1367 44.5879 24.207 44.6055 24.2461 44.625ZM27.2812 50.0215L29.0156 44.6602H30.123L27.8438 51H27.1172L27.2812 50.0215ZM25.834 44.6602L27.6211 50.0508L27.7441 51H27.0176L24.7207 44.6602H25.834ZM32.3438 44.6602V51H31.2539V44.6602H32.3438ZM31.1719 42.9785C31.1719 42.8027 31.2246 42.6543 31.3301 42.5332C31.4395 42.4121 31.5996 42.3516 31.8105 42.3516C32.0176 42.3516 32.1758 42.4121 32.2852 42.5332C32.3984 42.6543 32.4551 42.8027 32.4551 42.9785C32.4551 43.1465 32.3984 43.291 32.2852 43.4121C32.1758 43.5293 32.0176 43.5879 31.8105 43.5879C31.5996 43.5879 31.4395 43.5293 31.3301 43.4121C31.2246 43.291 31.1719 43.1465 31.1719 42.9785ZM36.7148 51.1172C36.2734 51.1172 35.873 51.043 35.5137 50.8945C35.1582 50.7422 34.8516 50.5293 34.5938 50.2559C34.3398 49.9824 34.1445 49.6582 34.0078 49.2832C33.8711 48.9082 33.8027 48.498 33.8027 48.0527V47.8066C33.8027 47.291 33.8789 46.832 34.0312 46.4297C34.1836 46.0234 34.3906 45.6797 34.6523 45.3984C34.9141 45.1172 35.2109 44.9043 35.543 44.7598C35.875 44.6152 36.2188 44.543 36.5742 44.543C37.0273 44.543 37.418 44.6211 37.7461 44.7773C38.0781 44.9336 38.3496 45.1523 38.5605 45.4336C38.7715 45.7109 38.9277 46.0391 39.0293 46.418C39.1309 46.793 39.1816 47.2031 39.1816 47.6484V48.1348H34.4473V47.25H38.0977V47.168C38.082 46.8867 38.0234 46.6133 37.9219 46.3477C37.8242 46.082 37.668 45.8633 37.4531 45.6914C37.2383 45.5195 36.9453 45.4336 36.5742 45.4336C36.3281 45.4336 36.1016 45.4863 35.8945 45.5918C35.6875 45.6934 35.5098 45.8457 35.3613 46.0488C35.2129 46.252 35.0977 46.5 35.0156 46.793C34.9336 47.0859 34.8926 47.4238 34.8926 47.8066V48.0527C34.8926 48.3535 34.9336 48.6367 35.0156 48.9023C35.1016 49.1641 35.2246 49.3945 35.3848 49.5938C35.5488 49.793 35.7461 49.9492 35.9766 50.0625C36.2109 50.1758 36.4766 50.2324 36.7734 50.2324C37.1562 50.2324 37.4805 50.1543 37.7461 49.998C38.0117 49.8418 38.2441 49.6328 38.4434 49.3711L39.0996 49.8926C38.9629 50.0996 38.7891 50.2969 38.5781 50.4844C38.3672 50.6719 38.1074 50.8242 37.7988 50.9414C37.4941 51.0586 37.1328 51.1172 36.7148 51.1172ZM42.0527 49.875L43.6816 44.6602H44.3965L44.2559 45.6973L42.5977 51H41.9004L42.0527 49.875ZM40.957 44.6602L42.3457 49.9336L42.4453 51H41.7129L39.873 44.6602H40.957ZM45.9551 49.8926L47.2793 44.6602H48.3574L46.5176 51H45.791L45.9551 49.8926ZM44.5547 44.6602L46.1484 49.7871L46.3301 51H45.6387L43.9336 45.6855L43.793 44.6602H44.5547Z" fill="#332317"/>
<path d="M41.1667 17.1667L26.1667 3.83334C25.5 3.33334 24.6667 3.33334 24 3.83334L9 17.1667C8.33334 17.8333 8.16667 18.8333 8.83333 19.5C9.5 20.1667 10.5 20.3333 11.1667 19.6667L11.6667 19V35C11.6667 36 12.3333 36.6667 13.3333 36.6667H36.6667C37.6667 36.6667 38.3333 36 38.3333 35V19L38.8333 19.5C39.5 20.1667 40.5 20 41.1667 19.3333C41.8333 18.8333 41.8333 17.6667 41.1667 17.1667ZM25 18.3333C27.5 18.3333 29.5 20.3333 29.5 22.8333C29.5 25.3333 27.5 27.3333 25 27.3333C22.5 27.3333 20.5 25.3333 20.5 22.8333C20.5 20.3333 22.5 18.3333 25 18.3333ZM16.6667 33.3333C16.6667 33.1667 16.6667 33.1667 16.8333 33C20.5 28.5 27.1667 27.6667 31.6667 31.3333C32.3333 31.8333 32.8333 32.3333 33.3333 33C33.3333 33 33.3333 33.1667 33.5 33.3333H16.6667Z" fill="#332317"/>
</svg>
