<svg width="49" height="54" viewBox="0 0 49 54" fill="none" xmlns="http://www.w3.org/2000/svg">
<path d="M11.5625 46.1367V47.0566H6.94531V46.1367H11.5625ZM7.12109 42.4688V51H5.99023V42.4688H7.12109ZM12.5469 42.4688V51H11.4219V42.4688H12.5469ZM15.5703 44.6602V51H14.4805V44.6602H15.5703ZM14.3984 42.9785C14.3984 42.8027 14.4512 42.6543 14.5566 42.5332C14.666 42.4121 14.8262 42.3516 15.0371 42.3516C15.2441 42.3516 15.4023 42.4121 15.5117 42.5332C15.625 42.6543 15.6816 42.8027 15.6816 42.9785C15.6816 43.1465 15.625 43.291 15.5117 43.4121C15.4023 43.5293 15.2441 43.5879 15.0371 43.5879C14.8262 43.5879 14.666 43.5293 14.5566 43.4121C14.4512 43.291 14.3984 43.1465 14.3984 42.9785ZM21.002 49.3184C21.002 49.1621 20.9668 49.0176 20.8965 48.8848C20.8301 48.748 20.6914 48.625 20.4805 48.5156C20.2734 48.4023 19.9609 48.3047 19.543 48.2227C19.1914 48.1484 18.873 48.0605 18.5879 47.959C18.3066 47.8574 18.0664 47.7344 17.8672 47.5898C17.6719 47.4453 17.5215 47.2754 17.416 47.0801C17.3105 46.8848 17.2578 46.6562 17.2578 46.3945C17.2578 46.1445 17.3125 45.9082 17.4219 45.6855C17.5352 45.4629 17.6934 45.2656 17.8965 45.0938C18.1035 44.9219 18.3516 44.7871 18.6406 44.6895C18.9297 44.5918 19.252 44.543 19.6074 44.543C20.1152 44.543 20.5488 44.6328 20.9082 44.8125C21.2676 44.9922 21.543 45.2324 21.7344 45.5332C21.9258 45.8301 22.0215 46.1602 22.0215 46.5234H20.9375C20.9375 46.3477 20.8848 46.1777 20.7793 46.0137C20.6777 45.8457 20.5273 45.707 20.3281 45.5977C20.1328 45.4883 19.8926 45.4336 19.6074 45.4336C19.3066 45.4336 19.0625 45.4805 18.875 45.5742C18.6914 45.6641 18.5566 45.7793 18.4707 45.9199C18.3887 46.0605 18.3477 46.209 18.3477 46.3652C18.3477 46.4824 18.3672 46.5879 18.4062 46.6816C18.4492 46.7715 18.5234 46.8555 18.6289 46.9336C18.7344 47.0078 18.8828 47.0781 19.0742 47.1445C19.2656 47.2109 19.5098 47.2773 19.8066 47.3438C20.3262 47.4609 20.7539 47.6016 21.0898 47.7656C21.4258 47.9297 21.6758 48.1309 21.8398 48.3691C22.0039 48.6074 22.0859 48.8965 22.0859 49.2363C22.0859 49.5137 22.0273 49.7676 21.9102 49.998C21.7969 50.2285 21.6309 50.4277 21.4121 50.5957C21.1973 50.7598 20.9395 50.8887 20.6387 50.9824C20.3418 51.0723 20.0078 51.1172 19.6367 51.1172C19.0781 51.1172 18.6055 51.0176 18.2188 50.8184C17.832 50.6191 17.5391 50.3613 17.3398 50.0449C17.1406 49.7285 17.041 49.3945 17.041 49.043H18.1309C18.1465 49.3398 18.2324 49.5762 18.3887 49.752C18.5449 49.9238 18.7363 50.0469 18.9629 50.1211C19.1895 50.1914 19.4141 50.2266 19.6367 50.2266C19.9336 50.2266 20.1816 50.1875 20.3809 50.1094C20.584 50.0312 20.7383 49.9238 20.8438 49.7871C20.9492 49.6504 21.002 49.4941 21.002 49.3184ZM26.1641 44.6602V45.4922H22.7363V44.6602H26.1641ZM23.8965 43.1191H24.9805V49.4297C24.9805 49.6445 25.0137 49.8066 25.0801 49.916C25.1465 50.0254 25.2324 50.0977 25.3379 50.1328C25.4434 50.168 25.5566 50.1855 25.6777 50.1855C25.7676 50.1855 25.8613 50.1777 25.959 50.1621C26.0605 50.1426 26.1367 50.127 26.1875 50.1152L26.1934 51C26.1074 51.0273 25.9941 51.0527 25.8535 51.0762C25.7168 51.1035 25.5508 51.1172 25.3555 51.1172C25.0898 51.1172 24.8457 51.0645 24.623 50.959C24.4004 50.8535 24.2227 50.6777 24.0898 50.4316C23.9609 50.1816 23.8965 49.8457 23.8965 49.4238V43.1191ZM27.0312 47.9004V47.7656C27.0312 47.3086 27.0977 46.8848 27.2305 46.4941C27.3633 46.0996 27.5547 45.7578 27.8047 45.4688C28.0547 45.1758 28.3574 44.9492 28.7129 44.7891C29.0684 44.625 29.4668 44.543 29.9082 44.543C30.3535 44.543 30.7539 44.625 31.1094 44.7891C31.4688 44.9492 31.7734 45.1758 32.0234 45.4688C32.2773 45.7578 32.4707 46.0996 32.6035 46.4941C32.7363 46.8848 32.8027 47.3086 32.8027 47.7656V47.9004C32.8027 48.3574 32.7363 48.7812 32.6035 49.1719C32.4707 49.5625 32.2773 49.9043 32.0234 50.1973C31.7734 50.4863 31.4707 50.7129 31.1152 50.877C30.7637 51.0371 30.3652 51.1172 29.9199 51.1172C29.4746 51.1172 29.0742 51.0371 28.7188 50.877C28.3633 50.7129 28.0586 50.4863 27.8047 50.1973C27.5547 49.9043 27.3633 49.5625 27.2305 49.1719C27.0977 48.7812 27.0312 48.3574 27.0312 47.9004ZM28.1152 47.7656V47.9004C28.1152 48.2168 28.1523 48.5156 28.2266 48.7969C28.3008 49.0742 28.4121 49.3203 28.5605 49.5352C28.7129 49.75 28.9023 49.9199 29.1289 50.0449C29.3555 50.166 29.6191 50.2266 29.9199 50.2266C30.2168 50.2266 30.4766 50.166 30.6992 50.0449C30.9258 49.9199 31.1133 49.75 31.2617 49.5352C31.4102 49.3203 31.5215 49.0742 31.5957 48.7969C31.6738 48.5156 31.7129 48.2168 31.7129 47.9004V47.7656C31.7129 47.4531 31.6738 47.1582 31.5957 46.8809C31.5215 46.5996 31.4082 46.3516 31.2559 46.1367C31.1074 45.918 30.9199 45.7461 30.6934 45.6211C30.4707 45.4961 30.209 45.4336 29.9082 45.4336C29.6113 45.4336 29.3496 45.4961 29.123 45.6211C28.9004 45.7461 28.7129 45.918 28.5605 46.1367C28.4121 46.3516 28.3008 46.5996 28.2266 46.8809C28.1523 47.1582 28.1152 47.4531 28.1152 47.7656ZM35.2461 45.6562V51H34.1621V44.6602H35.2168L35.2461 45.6562ZM37.2266 44.625L37.2207 45.6328C37.1309 45.6133 37.0449 45.6016 36.9629 45.5977C36.8848 45.5898 36.7949 45.5859 36.6934 45.5859C36.4434 45.5859 36.2227 45.625 36.0312 45.7031C35.8398 45.7812 35.6777 45.8906 35.5449 46.0312C35.4121 46.1719 35.3066 46.3398 35.2285 46.5352C35.1543 46.7266 35.1055 46.9375 35.082 47.168L34.7773 47.3438C34.7773 46.9609 34.8145 46.6016 34.8887 46.2656C34.9668 45.9297 35.0859 45.6328 35.2461 45.375C35.4062 45.1133 35.6094 44.9102 35.8555 44.7656C36.1055 44.6172 36.4023 44.543 36.7461 44.543C36.8242 44.543 36.9141 44.5527 37.0156 44.5723C37.1172 44.5879 37.1875 44.6055 37.2266 44.625ZM40.1152 50.3438L41.8789 44.6602H43.0391L40.4961 51.9785C40.4375 52.1348 40.3594 52.3027 40.2617 52.4824C40.168 52.666 40.0469 52.8398 39.8984 53.0039C39.75 53.168 39.5703 53.3008 39.3594 53.4023C39.1523 53.5078 38.9043 53.5605 38.6152 53.5605C38.5293 53.5605 38.4199 53.5488 38.2871 53.5254C38.1543 53.502 38.0605 53.4824 38.0059 53.4668L38 52.5879C38.0312 52.5918 38.0801 52.5957 38.1465 52.5996C38.2168 52.6074 38.2656 52.6113 38.293 52.6113C38.5391 52.6113 38.748 52.5781 38.9199 52.5117C39.0918 52.4492 39.2363 52.3418 39.3535 52.1895C39.4746 52.041 39.5781 51.8359 39.6641 51.5742L40.1152 50.3438ZM38.8203 44.6602L40.4668 49.582L40.748 50.7246L39.9688 51.123L37.6367 44.6602H38.8203Z" fill="#A5A5A5"/>
<path d="M21.6667 3.33334C20.6667 3.33334 20 4.00001 20 5.00001V35C20 36 20.6667 36.6667 21.6667 36.6667C22.6667 36.6667 23.3334 36 23.3334 35V5.00001C23.3334 4.00001 22.6667 3.33334 21.6667 3.33334ZM13.3334 20C12.3334 20 11.6667 20.6667 11.6667 21.6667V35C11.6667 36 12.3334 36.6667 13.3334 36.6667C14.3334 36.6667 15 36 15 35V21.6667C15 20.6667 14.3334 20 13.3334 20ZM30 13.3333C29 13.3333 28.3334 14 28.3334 15V35C28.3334 36 29 36.6667 30 36.6667C31 36.6667 31.6667 36 31.6667 35V15C31.6667 14 31 13.3333 30 13.3333ZM38.3334 26.6667C37.3334 26.6667 36.6667 27.3333 36.6667 28.3333V35C36.6667 36 37.3334 36.6667 38.3334 36.6667C39.3334 36.6667 40 36 40 35V28.3333C40 27.3333 39.3334 26.6667 38.3334 26.6667Z" fill="#A5A5A5"/>
</svg>
